#!OML:ASF F:\VICON\USERDATA\INSTALL\rory3\rory3.ASF
:FULLY-SPECIFIED
:DEGREES
1187
root 1.50381 17.286 -3.6612 7.59623 -0.320995 0.241706
lowerback 11.7112 0.0688955 -2.99906
upperback 2.18466 -0.320445 -0.884024
thorax -4.26681 -0.123838 0.81687
lowerneck -22.5108 -5.16224 -13.6909
upperneck 18.3863 -3.76805 5.29814
head 9.93786 -2.10348 3.53017
rclavicle -2.38542e-015 3.97569e-016
rhumerus -17.0379 2.03772 -83.8353
rradius 121.013
rwrist -4.44645
rhand -23.6952 23.9572
rfingers 7.12502
rthumb 2.77173 -6.00457
lclavicle -2.38542e-015 3.97569e-016
lhumerus -5.77026 -12.6084 86.2767
lradius 117.737
lwrist -2.6578
lhand -10.1865 6.15047
lfingers 7.12502
lthumb 15.804 35.5254
rfemur -24.536 -7.36802 8.94089
rtibia 53.909
rfoot -13.7804 6.2572
rtoes -15.6547
lfemur -24.6495 0.443723 -1.60836
ltibia 39.8144
lfoot -6.06339 -3.79181
ltoes -33.2807
1188
root 1.44361 17.3437 -3.68113 7.63261 -0.125562 0.112375
lowerback 11.8252 0.00686246 -2.82587
upperback 2.16788 -0.386089 -0.891789
thorax -4.34631 -0.157268 0.721631
lowerneck -22.4681 -5.05456 -13.505
upperneck 18.319 -3.68415 5.28203
head 9.89224 -2.0521 3.50741
rclavicle 5.56597e-015 7.15625e-015
rhumerus -16.9144 2.52219 -83.5702
rradius 121.044
rwrist -4.8413
rhand -23.669 23.9626
rfingers 7.12502
rthumb 2.79707 -5.99879
lclavicle 5.56597e-015 7.15625e-015
lhumerus -6.07635 -12.2825 86.2725
lradius 117.89
lwrist -2.52948
lhand -10.0312 6.06027
lfingers 7.12502
lthumb 15.9536 35.4233
rfemur -24.4636 -7.25468 8.95202
rtibia 53.395
rfoot -13.3505 7.29763
rtoes -14.9247
lfemur -24.8141 0.118169 -1.29829
ltibia 39.8419
lfoot -4.97715 -3.38316
ltoes -31.9825
1189
root 1.38751 17.3902 -3.69811 7.58583 0.0493578 0.0198296
lowerback 11.904 -0.0813655 -2.60844
upperback 2.23318 -0.478048 -0.917952
thorax -4.32055 -0.206322 0.586202
lowerneck -22.5317 -5.00299 -13.4361
upperneck 18.2973 -3.64491 5.36028
head 9.89089 -2.01855 3.53035
rclavicle -1.78906e-015 1.19271e-015
rhumerus -16.7251 2.91654 -83.3776
rradius 121.073
rwrist -5.16284
rhand -23.5141 23.9772
rfingers 7.12502
rthumb 2.94657 -5.98218
lclavicle -1.78906e-015 1.19271e-015
lhumerus -6.2601 -11.9182 86.2036
lradius 118.022
lwrist -2.47113
lhand -10.0471 6.09088
lfingers 7.12502
lthumb 15.9383 35.4551
rfemur -24.3387 -7.19308 8.86871
rtibia 52.9036
rfoot -13.0433 8.04948
rtoes -14.2741
lfemur -24.8618 -0.0765184 -1.11637
ltibia 40.1468
lfoot -4.32785 -2.5098
ltoes -31.2841
1190
root 1.33833 17.4156 -3.71492 7.47574 0.118343 0.0294893
lowerback 12.0469 -0.123963 -2.44669
upperback 2.28284 -0.518184 -0.927452
thorax -4.34779 -0.22824 0.492005
lowerneck -22.5231 -4.99618 -13.3975
upperneck 18.241 -3.63518 5.30219
head 9.86633 -2.01669 3.50387
rclavicle -2.78299e-015 -7.15625e-015
rhumerus -16.387 3.12297 -83.1643
rradius 121.052
rwrist -5.19399
rhand -23.1264 23.632
rfingers 7.12502
rthumb 3.321 -6.32184
lclavicle -2.78299e-015 -7.15625e-015
lhumerus -6.50307 -11.5612 86.3396
lradius 118.149
lwrist -2.46546
lhand -10.0203 6.17553
lfingers 7.12502
lthumb 15.9641 35.5377
rfemur -24.1696 -7.17271 8.61903
rtibia 52.4621
rfoot -13.1597 7.87092
rtoes -14.8077
lfemur -24.8307 -0.159844 -1.10795
ltibia 40.734
lfoot -4.11561 -1.89063
ltoes -30.9664
1191
root 1.29559 17.4243 -3.73437 7.33167 0.173645 0.0199433
lowerback 12.1639 -0.161257 -2.16158
upperback 2.31571 -0.534278 -0.927679
thorax -4.38025 -0.239708 0.334204
lowerneck -22.3768 -4.93996 -13.2004
upperneck 18.1143 -3.58862 5.06671
head 9.78208 -2.00706 3.39372
rclavicle 1.23246e-014 0
rhumerus -16.0749 3.23458 -82.9432
rradius 120.999
rwrist -5.0131
rhand -22.9127 23.4968
rfingers 7.12502
rthumb 3.52744 -6.45379
lclavicle 1.23246e-014 0
lhumerus -6.7809 -11.3122 86.544
lradius 118.26
lwrist -2.48722
lhand -10.1447 6.22184
lfingers 7.12502
lthumb 15.8443 35.5935
rfemur -23.9781 -7.15841 8.34714
rtibia 52.1086
rfoot -13.7669 6.93051
rtoes -15.1702
lfemur -24.826 -0.265043 -1.0847
ltibia 41.564
lfoot -4.18177 -2.31848
ltoes -30.8529
1192
root 1.25689 17.4258 -3.75683 7.1828 0.206761 -0.0200128
lowerback 12.2991 -0.221629 -1.81925
upperback 2.32988 -0.570056 -0.855054
thorax -4.44185 -0.260982 0.2235
lowerneck -22.2342 -4.86193 -13.2031
upperneck 18.0213 -3.47601 4.96211
head 9.71126 -1.96652 3.37359
rclavicle -3.97569e-015 -1.98785e-015
rhumerus -15.9327 3.46044 -82.5665
rradius 120.936
rwrist -4.85139
rhand -23.0242 23.7547
rfingers 7.12502
rthumb 3.41978 -6.19758
lclavicle -3.97569e-015 -1.98785e-015
lhumerus -7.00286 -10.9996 86.7554
lradius 118.363
lwrist -2.44726
lhand -10.311 6.12298
lfingers 7.12502
lthumb 15.6841 35.5073
rfemur -23.8854 -7.11601 8.07272
rtibia 51.8827
rfoot -14.4355 5.72996
rtoes -14.6448
lfemur -24.8072 -0.297181 -1.05016
ltibia 42.5097
lfoot -4.18564 -3.9841
ltoes -31.7964
1193
root 1.22302 17.4132 -3.7796 7.06313 0.057229 -0.0536159
lowerback 12.4317 -0.264228 -1.46569
upperback 2.32792 -0.579399 -0.767801
thorax -4.51953 -0.269372 0.117638
lowerneck -22.2002 -4.79321 -13.3368
upperneck 18.0153 -3.33945 4.95081
head 9.69269 -1.91435 3.41191
rclavicle 4.87022e-015 3.57812e-015
rhumerus -15.7922 3.73181 -82.1953
rradius 120.934
rwrist -4.66056
rhand -23.1565 24.0841
rfingers 7.12502
rthumb 3.29198 -5.87021
lclavicle 4.87022e-015 3.57812e-015
lhumerus -7.16455 -10.5873 86.9727
lradius 118.537
lwrist -2.2661
lhand -10.266 6.22523
lfingers 7.12502
lthumb 15.7275 35.6062
rfemur -23.9871 -7.03698 7.73578
rtibia 51.82
rfoot -14.9437 4.4069
rtoes -13.8021
lfemur -24.6423 -0.194041 -1.06266
ltibia 43.3832
lfoot -3.99807 -6.23706
ltoes -33.5743
1194
root 1.19501 17.385 -3.79949 6.94522 -0.265681 -0.187413
lowerback 12.4968 -0.301422 -0.955787
upperback 2.34046 -0.559368 -0.69256
thorax -4.54669 -0.266111 -0.0941851
lowerneck -22.347 -4.69107 -13.3076
upperneck 18.1201 -3.17082 4.88002
head 9.73738 -1.84399 3.40807
rclavicle 1.78906e-015 0
rhumerus -15.5244 3.99846 -81.9635
rradius 120.979
rwrist -4.40393
rhand -23.3469 24.1869
rfingers 7.12502
rthumb 3.10805 -5.77017
lclavicle 1.78906e-015 0
lhumerus -7.27863 -10.1877 87.1265
lradius 118.716
lwrist -2.15255
lhand -10.268 6.33019
lfingers 7.12502
lthumb 15.7256 35.7113
rfemur -24.2275 -6.98459 7.49202
rtibia 51.9185
rfoot -15.2716 2.79618
rtoes -13.0327
lfemur -24.2488 -0.137318 -0.961806
ltibia 43.9702
lfoot -3.75642 -8.28408
ltoes -34.221
1195
root 1.17154 17.347 -3.81624 6.85065 -0.704117 -0.30307
lowerback 12.2146 -0.268933 -0.623868
upperback 2.52476 -0.456763 -0.449514
thorax -4.19939 -0.220289 -0.0459306
lowerneck -22.6224 -4.60906 -13.3157
upperneck 18.1367 -2.95652 4.63959
head 9.76803 -1.77131 3.35392
rclavicle -6.65929e-015 -8.15017e-015
rhumerus -14.9265 4.21768 -81.4459
rradius 121.002
rwrist -4.16556
rhand -23.506 24.1381
rfingers 7.12502
rthumb 2.95446 -5.82113
lclavicle -6.65929e-015 -8.15017e-015
lhumerus -7.13025 -9.7727 87.5343
lradius 118.916
lwrist -2.13203
lhand -10.3426 6.065
lfingers 7.12502
lthumb 15.6537 35.4517
rfemur -24.6116 -6.97273 7.21769
rtibia 52.1611
rfoot -15.3612 1.00704
rtoes -12.3988
lfemur -23.6133 -0.28925 -0.895093
ltibia 44.0737
lfoot -4.04257 -9.07366
ltoes -35.0968
1196
root 1.14836 17.2996 -3.83123 6.81226 -1.32678 -0.184019
lowerback 12.235 -0.206176 -0.46516
upperback 2.39471 -0.350788 -0.35726
thorax -4.34748 -0.169273 -0.0553234
lowerneck -22.7192 -4.46146 -13.2778
upperneck 18.3551 -2.72757 4.53211
head 9.83895 -1.6814 3.34677
rclavicle 4.27387e-015 -5.96354e-015
rhumerus -14.7696 4.44898 -81.1566
rradius 121.049
rwrist -3.99868
rhand -23.5653 23.9973
rfingers 7.12502
rthumb 2.89716 -5.96278
lclavicle 4.27387e-015 -5.96354e-015
lhumerus -7.42987 -9.36353 87.818
lradius 119.254
lwrist -1.95602
lhand -10.0597 5.98094
lfingers 7.12502
lthumb 15.9262 35.3461
rfemur -25.185 -6.87528 6.65783
rtibia 52.5128
rfoot -15.1065 -0.383758
rtoes -9.65325
lfemur -22.7043 -0.608724 -1.10645
ltibia 43.6257
lfoot -5.22752 -7.6477
ltoes -37.0333
